<?xml version="1.0" encoding="UTF-8" standalone="no"?>
<!DOCTYPE svg PUBLIC "-//W3C//DTD SVG 1.1//EN" "http://www.w3.org/Graphics/SVG/1.1/DTD/svg11.dtd">
<svg width="100%" height="100%" viewBox="0 0 60 60" version="1.1" xmlns="http://www.w3.org/2000/svg" xmlns:xlink="http://www.w3.org/1999/xlink" xml:space="preserve" xmlns:serif="http://www.serif.com/" style="fill-rule:evenodd;clip-rule:evenodd;stroke-linejoin:round;stroke-miterlimit:2;">
    <path d="M30,6C19.738,6 11.386,14.352 11.386,24.614C11.386,34.627 28.57,52.925 29.299,53.693C29.482,53.885 29.741,54 30,54C30.259,54 30.518,53.885 30.701,53.693C31.43,52.925 48.614,34.627 48.614,24.614C48.614,14.352 40.262,6 30,6ZM30,32.536C25.627,32.536 22.069,28.982 22.069,24.615C22.069,20.242 25.627,16.684 30,16.684C34.373,16.684 37.931,20.242 37.931,24.615C37.931,28.982 34.373,32.536 30,32.536Z" style="fill:white;fill-rule:nonzero;"/>
</svg>
