<?xml version="1.0" encoding="UTF-8" standalone="no"?>
<!DOCTYPE svg PUBLIC "-//W3C//DTD SVG 1.1//EN" "http://www.w3.org/Graphics/SVG/1.1/DTD/svg11.dtd">
<svg width="100%" height="100%" viewBox="0 0 512 512" version="1.1" xmlns="http://www.w3.org/2000/svg" xmlns:xlink="http://www.w3.org/1999/xlink" xml:space="preserve" xmlns:serif="http://www.serif.com/" style="fill-rule:evenodd;clip-rule:evenodd;stroke-linejoin:round;stroke-miterlimit:2;">
    <path d="M290,360.2C280.9,369.8 268.3,375.3 255.1,375.3L254.5,375.3C241,375.1 228.5,369.3 219.5,359.3L42,187.7L42,452.7C42,464.3 48,471 51.5,471L462.5,471C466,471 472,464.4 472,452.7L472,193.6L290,360.2Z" style="fill:none;fill-rule:nonzero;"/>
    <path d="M248.4,331.7L249,332.4C251.1,334.9 253.8,335.3 255.1,335.3C256.5,335.3 259.1,335 261.3,332.6L261.9,331.9L262.6,331.3L446,163.6L256.8,163.9L73.1,162.7L248.4,331.7Z" style="fill:none;fill-rule:nonzero;"/>
    <path d="M462.2,123.5L256.9,124L51.6,123L51.5,123C23.9,123 2,148.9 2,181.3L2,452.7C2,485.1 23.9,511 51.5,511L462.5,511C490.1,511 512,485.1 512,452.7L512,181.3C512,148.9 490.3,123.5 462.2,123.5ZM446.1,163.5L262.7,331.2L262,331.8L261.4,332.5C259.2,334.9 256.6,335.2 255.2,335.2C253.8,335.2 251.2,334.8 249.1,332.3L248.5,331.6L73.2,162.7L256.9,163.9L446.1,163.5ZM462.5,471L51.5,471C48,471 42,464.4 42,452.7L42,187.7L219.6,359.3C228.6,369.3 241.3,375.1 254.8,375.3L255.4,375.3C268.7,375.3 281.1,369.8 290.2,360.2L472.2,193.6L472.2,452.7C472,464.4 466,471 462.5,471Z" style="fill:white;fill-rule:nonzero;"/>
</svg>
