<?xml version="1.0" encoding="UTF-8" standalone="no"?>
<!DOCTYPE svg PUBLIC "-//W3C//DTD SVG 1.1//EN" "http://www.w3.org/Graphics/SVG/1.1/DTD/svg11.dtd">
<svg width="100%" height="100%" viewBox="0 0 32 32" version="1.1" xmlns="http://www.w3.org/2000/svg" xmlns:xlink="http://www.w3.org/1999/xlink" xml:space="preserve" xmlns:serif="http://www.serif.com/" style="fill-rule:evenodd;clip-rule:evenodd;stroke-linejoin:round;stroke-miterlimit:2;">
    <path d="M27.308,20.649L25.108,18.449C23.752,17.104 21.537,17.095 20.17,18.428C19.445,19.157 18.294,19.27 17.441,18.695C15.803,17.602 14.396,16.198 13.3,14.562C12.736,13.7 12.855,12.551 13.584,11.823C14.905,10.455 14.891,8.251 13.553,6.9L11.353,4.7C9.991,3.342 7.754,3.342 6.392,4.7L5.759,5.334C2.459,8.634 2.706,15.572 9.572,22.434C13.712,26.575 17.879,28.309 21.258,28.309C23.266,28.376 25.22,27.633 26.676,26.248L27.31,25.614C28.67,24.251 28.669,22.011 27.308,20.649ZM25.894,24.2L25.26,24.834C22.66,27.434 16.921,26.959 10.984,21.021C5.047,15.083 4.571,9.34 7.171,6.74L7.8,6.107C8.386,5.523 9.347,5.523 9.933,6.107L12.133,8.307C12.708,8.885 12.717,9.828 12.154,10.417C10.767,11.813 10.544,14.01 11.623,15.656C12.869,17.52 14.47,19.119 16.336,20.362C17.977,21.441 20.169,21.225 21.567,19.845C22.155,19.275 23.104,19.281 23.685,19.858L25.885,22.058C26.173,22.342 26.335,22.729 26.335,23.133C26.335,23.533 26.176,23.917 25.894,24.2Z" style="fill:white;fill-rule:nonzero;"/>
</svg>
